# xmcd
#
# Track frame offsets: 
#        150
#        20645
#        45746
#        78271
#        101172
#        125160
#        148156
#        174630
#
# Disc length: 2630 seconds
#
# Revision: 0
# Processed by: cddbd v1.4PL0 Copyright (c) Steve Scherf et al.
# Submitted via: ExactAudioCopy v0.90b4
#
DISCID=710a4408
DTITLE=Rory Gallagher - Köln, Music Hall Oct 17, 1990 - Disk 1
DYEAR=1990
DGENRE=Blues
TTITLE0=Continental OP
TTITLE1=Don't Start Me To Talkin'
TTITLE2=Mean Disposition
TTITLE3=Kid Gloves
TTITLE4=Middle Name
TTITLE5=The King Of Zydeco
TTITLE6=Out On The Western Plain
TTITLE7=Empire State Express
EXTD=
EXTT0=
EXTT1=
EXTT2=
EXTT3=
EXTT4=
EXTT5=
EXTT6=
EXTT7=
PLAYORDER=
